HIERARCHY
ROOT Hips
{
	OFFSET 0.00000 0.00000 0.00000
	CHANNELS 6 Xposition Yposition Zposition Zrotation Yrotation Xrotation 
	JOINT LHipJoint
	{
		OFFSET 0 0 0
		CHANNELS 3 Zrotation Yrotation Xrotation
		JOINT LeftHip
		{
			OFFSET 1.73240 -1.89999 0.57994
			CHANNELS 3 Zrotation Yrotation Xrotation
			JOINT LeftKnee
			{
				OFFSET 2.43106 -6.67930 0.00000
				CHANNELS 3 Zrotation Yrotation Xrotation
				JOINT LeftAnkle
				{
					OFFSET 2.78854 -7.66147 0.00000
					CHANNELS 3 Zrotation Yrotation Xrotation
					JOINT LeftToe
					{
						OFFSET 0.17314 -0.47571 2.01064
						CHANNELS 3 Zrotation Yrotation Xrotation
						End Site
						{
							OFFSET 0.00000 -0.00000 1.04147
						}
					}
				}
			}
		}
	}
	JOINT RHipJoint
	{
		OFFSET 0 0 0
		CHANNELS 3 Zrotation Yrotation Xrotation
		JOINT RightHip
		{
			OFFSET -1.57078 -1.89998 0.57994
			CHANNELS 3 Zrotation Yrotation Xrotation
			JOINT RightKnee
			{
				OFFSET -2.50166 -6.87326 0.00000
				CHANNELS 3 Zrotation Yrotation Xrotation
				JOINT RightAnkle
				{
					OFFSET -2.77304 -7.61886 0.00000
					CHANNELS 3 Zrotation Yrotation Xrotation
					JOINT RightToe
					{
						OFFSET -0.23513 -0.64602 2.11039
						CHANNELS 3 Zrotation Yrotation Xrotation
						End Site
						{
							OFFSET -0.00000 -0.00000 1.10597
						}
					}
				}
			}
		}
	}
	JOINT lowerback
	{
		OFFSET 0 0 0
		CHANNELS 3 Zrotation Yrotation Xrotation
		JOINT Chest
		{
			OFFSET -0.00908 2.00015 -0.35323
			CHANNELS 3 Zrotation Yrotation Xrotation
			JOINT Chest2
			{
				OFFSET 0.05647 2.02258 0.04270
				CHANNELS 3 Zrotation Yrotation Xrotation
				JOINT lowerneck
				{
					OFFSET 0 0 0
					CHANNELS 3 Zrotation Yrotation Xrotation
					JOINT Neck
					{
						OFFSET -0.02074 1.73711 0.13117
						CHANNELS 3 Zrotation Yrotation Xrotation
						JOINT Head
						{
							OFFSET -0.02359 1.73615 -0.24320
							CHANNELS 3 Zrotation Yrotation Xrotation
							End Site
							{
								OFFSET -0.00579 1.75982 -0.09688
							}
						}
					}
				}
				JOINT LeftCollar
				{
					OFFSET 0 0 0
					CHANNELS 3 Zrotation Yrotation Xrotation
					JOINT LeftShoulder
					{
						OFFSET 3.20537 1.11432 -0.27680
CHANNELS 3 Zrotation Xrotation Yrotation
						JOINT LeftElbow
						{
OFFSET 0 -5.059230 -0.000000
CHANNELS 3 Zrotation Xrotation Yrotation
							JOINT LeftWrist
							{
OFFSET 0 -3.519960 0.000000
CHANNELS 3 Zrotation Xrotation Yrotation
								JOINT lhand
								{
									OFFSET 0 0 0
CHANNELS 3 Zrotation Xrotation Yrotation
									JOINT LFingers
									{
OFFSET 0 -0.652380 0.000000
CHANNELS 3 Zrotation Xrotation Yrotation
										End Site
										{
OFFSET 0 -0.525960 0.000000
										}
									}
								}
								JOINT LThumb
								{
OFFSET 0 0.000000 0.000000
CHANNELS 3 Zrotation Xrotation Yrotation
									End Site
									{
OFFSET 0 -0.533990 0.533990
									}
								}
							}
						}
					}
				}
				JOINT RightCollar
				{
					OFFSET 0 0 0
					CHANNELS 3 Zrotation Yrotation Xrotation
					JOINT RightShoulder
					{
						OFFSET -2.96983 1.42602 -0.37449
CHANNELS 3 Zrotation Xrotation Yrotation
						JOINT RightElbow
						{
OFFSET 0 -5.408670 0.000000
CHANNELS 3 Zrotation Xrotation Yrotation
							JOINT RightWrist
							{
OFFSET 0 -3.129640 0.000000
CHANNELS 3 Zrotation Xrotation Yrotation
								JOINT rhand
								{
									OFFSET 0 0 0
CHANNELS 3 Zrotation Xrotation Yrotation
									JOINT RFingers
									{
OFFSET 0 -0.832710 0.000000
CHANNELS 3 Zrotation Xrotation Yrotation
										End Site
										{
OFFSET 0 -0.671350 0.000000
										}
									}
								}
								JOINT RThumb
								{
OFFSET 0 0.000000 0.000000
CHANNELS 3 Zrotation Xrotation Yrotation
									End Site
									{
OFFSET 0 -0.681600 0.681600
									}
								}
							}
						}
					}
				}
			}
		}
	}
}
MOTION
Frames: 11
Frame Time: 0.008333333333333333
1.008000 16.795200 -23.334700 37.703900 -84.041200 -36.467300 0.000000 0.000000 0.000000 -5.005000 -14.297400 -32.448300 8.256400 16.304600 53.480900 -0.758200 -15.329400 3.607600 1.131600 -6.756300 -18.995400 0.000000 0.000000 0.000000 -0.117100 10.386100 -23.591100 -6.041400 -14.468400 45.147800 -0.334600 -9.610400 -18.315700 -0.748600 5.526400 -15.416100 3.517700 0.741100 34.999000 9.146200 2.049900 8.090800 7.198300 0.377100 -9.101200 -5.340800 -5.438700 -9.404400 -7.402100 -5.575300 24.804000 -2.279900 -4.073400 9.327900 -0.000000 -0.000000 0.000000 -1.402100 10.631200 -24.130400 37.474300 -46.500300 16.583200 21.623400 8.210800 -47.479200 0.000000 0.000000 0.000000 -7.125000 0.000000 0.000000 -39.369400 76.909700 30.284500 -0.000000 -0.000000 0.000000 -16.731300 -28.826900 -17.798600 -15.553600 -24.911600 -3.455800 -24.040000 -22.030800 3.556300 0.000000 0.000000 0.000000 7.125000 0.000000 -0.000000 2.117100 33.867300 0.578400
1.000287 16.796953 -23.235384 31.459643 -84.704405 -31.016215 0.000000 0.000000 0.000000 -4.605234 -13.352976 -31.862624 8.385265 16.394650 53.937561 -0.883258 -16.427580 4.176498 1.212184 -6.980173 -19.658355 0.000000 0.000000 0.000000 0.693000 10.479355 -22.196676 -5.812168 -14.240019 44.215897 -0.320126 -9.500166 -18.026017 -0.719502 5.419121 -15.108087 4.551122 0.531951 35.816713 9.161776 2.154625 8.196376 6.633459 0.375297 -9.219347 -5.325675 -5.462540 -9.438056 -7.370998 -5.613864 24.832347 -2.278197 -4.087223 9.343776 0.000000 0.000000 0.000000 -1.549796 10.801233 -23.693472 37.343232 -46.414507 16.488242 17.601547 5.514005 -47.946679 0.000000 0.000000 0.000000 -7.125000 0.000000 0.000000 -44.649450 75.627313 33.480176 0.000000 0.000000 0.000000 -16.686125 -28.482576 -19.010019 -15.810528 -25.261834 -3.565433 -23.457028 -23.439047 3.914597 0.000000 0.000000 0.000000 7.125000 0.000000 0.000000 2.617284 34.235013 0.687532
0.992550 16.798727 -23.136006 25.248928 -85.367051 -25.594639 0.000000 0.000000 0.000000 -4.209036 -12.413931 -31.278724 8.514141 16.484697 54.394244 -1.007676 -17.520595 4.739951 1.293772 -7.206263 -20.328128 0.000000 0.000000 0.000000 1.497996 10.572899 -20.807297 -5.583235 -14.011911 43.285159 -0.305727 -9.389104 -17.736361 -0.690262 5.311246 -14.798379 5.580733 0.324064 36.629375 9.177516 2.259391 8.301720 6.070739 0.373726 -9.336198 -5.311627 -5.485968 -9.471027 -7.340230 -5.651681 24.860296 -2.276317 -4.100830 9.359436 0.000000 0.000000 0.000000 -1.698973 10.971543 -23.257611 37.212307 -46.328806 16.393388 13.598888 2.827864 -48.411005 0.000000 0.000000 0.000000 -7.125000 0.000000 0.000000 -49.901824 74.350459 36.658189 0.000000 0.000000 0.000000 -16.642644 -28.138035 -20.220405 -16.067254 -25.611780 -3.674985 -22.873599 -24.846807 4.272863 0.000000 0.000000 0.000000 7.125000 0.000000 0.000000 3.117875 34.602647 0.796711
0.977575 16.806690 -23.017910 29.067292 -85.862377 -28.996308 0.000000 0.000000 0.000000 -4.879955 -13.083247 -31.225936 8.646311 16.573846 54.857516 -0.940414 -17.069143 3.675176 1.675257 -8.095195 -23.036592 0.000000 0.000000 0.000000 0.776744 10.752749 -20.926446 -5.443652 -13.865116 42.702788 -0.313690 -9.030256 -17.454692 -0.618742 5.025170 -13.982169 5.470499 0.493246 35.932013 9.242374 2.376837 8.337780 6.142509 0.441589 -9.065748 -5.619741 -5.386302 -9.299040 -7.409346 -5.466122 24.769194 -2.221476 -4.049745 9.310154 0.000000 0.000000 0.000000 -2.291010 11.224465 -23.140766 37.124260 -46.270710 16.329782 15.335332 3.327146 -47.932558 0.000000 0.000000 0.000000 -7.125000 0.000000 0.000000 -46.879036 74.728038 34.554984 0.000000 0.000000 0.000000 -17.105816 -27.728452 -21.122008 -16.263330 -25.875720 -3.760578 -22.153349 -26.108911 4.621845 0.000000 0.000000 0.000000 7.125000 0.000000 0.000000 3.740362 34.946620 0.919916
0.962733 16.814513 -22.900035 32.836143 -86.353806 -32.350125 0.000000 0.000000 0.000000 -5.546666 -13.745648 -31.176878 8.778324 16.662873 55.320214 -0.873922 -16.622877 2.622197 2.050920 -8.970197 -25.702805 0.000000 0.000000 0.000000 0.059806 10.930290 -21.043952 -5.304131 -13.718347 42.120596 -0.321248 -8.675969 -17.172768 -0.547993 4.742201 -13.174822 5.362597 0.660944 35.238125 9.306417 2.493628 8.373020 6.212478 0.509096 -8.797167 -5.924628 -5.288267 -9.129691 -7.477623 -5.283264 24.680274 -2.167336 -3.999581 9.261974 0.000000 0.000000 0.000000 -2.878099 11.476265 -23.025744 37.035348 -46.212030 16.265554 17.081234 3.838588 -47.455152 0.000000 0.000000 0.000000 -7.125000 0.000000 0.000000 -43.847501 75.109954 32.447925 0.000000 0.000000 0.000000 -17.566306 -27.318461 -22.025122 -16.459480 -26.139737 -3.846214 -21.431455 -27.367709 4.971761 0.000000 0.000000 0.000000 7.125000 0.000000 0.000000 4.364390 35.291436 1.043206
0.967691 16.801441 -22.815243 29.227579 -86.264657 -28.573881 0.000000 0.000000 0.000000 -5.586633 -13.377885 -31.683522 8.886905 16.733841 55.697343 -0.922202 -16.949472 3.326822 1.558900 -7.769746 -22.073556 0.000000 0.000000 0.000000 -0.014318 10.763863 -20.916689 -5.173713 -13.575409 41.565071 -0.268410 -9.001261 -16.852985 -0.592017 4.922402 -13.688178 5.602096 0.607555 35.061881 9.248921 2.512860 8.285975 6.014248 0.523571 -8.807234 -5.748785 -5.433309 -9.353364 -7.421079 -5.502830 24.916367 -2.217770 -4.086726 9.378118 0.000000 0.000000 0.000000 -2.727898 11.560956 -23.182406 36.817484 -46.066588 16.108642 20.236292 6.161861 -47.132915 0.000000 0.000000 0.000000 -7.125000 0.000000 0.000000 -39.512626 76.138068 29.766707 0.000000 0.000000 0.000000 -17.627208 -26.847576 -23.153453 -16.666475 -26.415246 -3.938267 -20.464694 -28.134036 5.460977 0.000000 0.000000 0.000000 7.125000 0.000000 0.000000 5.217913 35.761820 1.179082
0.972514 16.788458 -22.730463 25.644669 -86.178753 -24.825273 0.000000 0.000000 0.000000 -5.627999 -13.003313 -32.187618 8.995267 16.804652 56.073691 -0.970680 -17.278809 4.022930 1.070692 -6.577798 -18.470394 0.000000 0.000000 0.000000 -0.088097 10.601688 -20.786807 -5.043420 -13.432555 41.009967 -0.215420 -9.329369 -16.534617 -0.636645 5.104606 -14.207342 5.839362 0.555139 34.886384 9.191793 2.532247 8.200427 5.817537 0.538054 -8.816114 -5.573313 -5.575849 -9.574040 -7.365918 -5.718870 25.149869 -2.268020 -4.172342 9.492804 0.000000 0.000000 0.000000 -2.579729 11.645886 -23.336091 36.599313 -45.920912 15.951519 23.304545 8.424301 -46.823330 0.000000 0.000000 0.000000 -7.125000 0.000000 0.000000 -35.304261 77.140242 27.166455 0.000000 0.000000 0.000000 -17.688307 -26.378601 -24.279310 -16.872634 -26.689627 -4.029957 -19.495755 -28.895065 5.949124 0.000000 0.000000 0.000000 7.125000 0.000000 0.000000 6.073298 36.230816 1.315220
0.963950 16.784251 -22.646723 24.601581 -86.414045 -23.812585 0.000000 0.000000 0.000000 -5.807949 -11.954565 -32.439387 9.082012 16.859894 56.372840 -1.038643 -17.879711 3.875884 0.959908 -6.227615 -17.449793 0.000000 0.000000 0.000000 -0.127763 10.860469 -20.397508 -4.925373 -13.298031 40.496712 -0.147457 -9.936230 -16.356320 -0.741169 5.485241 -15.301566 5.855589 0.599062 34.784815 9.171109 2.566955 8.263132 5.771210 0.553429 -8.707483 -5.434632 -5.470724 -9.498013 -7.447755 -5.585899 25.126781 -2.300023 -4.106532 9.463205 0.000000 0.000000 0.000000 -2.632617 11.754517 -23.195206 36.350649 -45.752080 15.773422 17.779036 4.664435 -47.766301 0.000000 0.000000 0.000000 -7.125000 0.000000 0.000000 -43.620321 75.574432 32.581981 0.000000 0.000000 0.000000 -17.769042 -26.098684 -25.160329 -16.996040 -26.852298 -4.085700 -18.311231 -29.131610 6.331511 0.000000 0.000000 0.000000 7.125000 0.000000 0.000000 7.113081 36.562368 1.477240
0.955345 16.780174 -22.562696 23.542711 -86.648101 -22.784062 0.000000 0.000000 0.000000 -5.990485 -10.931813 -32.681408 9.168259 16.914812 56.670262 -1.103582 -18.458585 3.708597 0.852975 -5.889350 -16.464016 0.000000 0.000000 0.000000 -0.168852 11.117618 -20.008484 -4.807551 -13.163709 39.984327 -0.080203 -10.534712 -16.177220 -0.843033 5.856218 -16.368019 5.887623 0.633637 34.684137 9.137833 2.594750 8.323865 5.705710 0.565692 -8.599106 -5.282790 -5.359722 -9.419060 -7.528175 -5.447370 25.100696 -2.332871 -4.036610 9.431616 0.000000 0.000000 0.000000 -2.669558 11.865164 -23.051743 36.103014 -45.583923 15.596071 12.212845 0.869856 -48.695048 0.000000 0.000000 0.000000 -7.125000 0.000000 0.000000 -51.910033 73.988884 37.950126 0.000000 0.000000 0.000000 -17.831617 -25.819117 -26.034521 -17.119201 -27.014635 -4.141339 -17.123289 -29.364316 6.709036 0.000000 0.000000 0.000000 7.125000 0.000000 0.000000 8.155081 36.888603 1.640649
0.943726 16.785733 -22.457370 21.316050 -86.790638 -20.583745 0.000000 0.000000 0.000000 -6.364358 -11.832764 -32.202009 9.217691 16.945714 56.839894 -0.944717 -17.407483 2.043372 1.031071 -6.433106 -18.055218 0.000000 0.000000 0.000000 -0.315246 11.253945 -19.639820 -4.706382 -13.044360 39.536330 -0.065428 -10.513075 -15.938723 -0.747974 5.512596 -15.379472 7.089376 -0.023609 34.649429 8.172825 2.110994 8.238774 4.221487 0.347629 -8.509557 -4.157064 -4.813862 -9.123568 -7.503784 -4.897604 24.852934 -2.428230 -3.662336 9.252818 0.000000 0.000000 0.000000 -1.526403 12.124997 -22.717435 35.931578 -45.465676 15.473867 3.636200 -5.493450 -48.571141 0.000000 0.000000 0.000000 -7.125000 0.000000 0.000000 -58.249999 70.942707 39.812079 0.000000 0.000000 0.000000 -16.550381 -25.565394 -26.403586 -17.224276 -27.152264 -4.189269 -15.682488 -29.313031 6.726766 0.000000 0.000000 0.000000 7.125000 0.000000 0.000000 9.361141 36.821290 1.906843
0.932297 16.791243 -22.352316 19.073154 -86.932678 -18.364901 0.000000 0.000000 0.000000 -6.735128 -12.725133 -31.728461 9.266488 16.976216 57.007343 -0.787139 -16.364864 0.391659 1.205891 -6.966930 -19.617330 0.000000 0.000000 0.000000 -0.460421 11.392400 -19.273131 -4.605152 -12.924866 39.087909 -0.049957 -10.498550 -15.699640 -0.654245 5.173703 -14.404550 8.266024 -0.667636 34.613511 7.229559 1.636756 8.154550 2.770131 0.133825 -8.422131 -3.056879 -4.280523 -8.838514 -7.480038 -4.360195 24.612528 -2.521633 -3.296606 9.079362 0.000000 0.000000 0.000000 -0.411803 12.383418 -22.386637 35.757971 -45.345869 15.350135 -4.560711 -11.571082 -48.440835 0.000000 0.000000 0.000000 -7.125000 0.000000 0.000000 -64.255739 68.028459 41.537447 0.000000 0.000000 0.000000 -15.302467 -25.309605 -26.772709 -17.328234 -27.288426 -4.236691 -14.241583 -29.266451 6.744568 0.000000 0.000000 0.000000 7.125000 0.000000 0.000000 10.567165 36.754037 2.173228
